<svg width="157" height="156" viewBox="0 0 157 156" fill="none" xmlns="http://www.w3.org/2000/svg">
<g clip-path="url(#clip0_101_104)">
<path fill-rule="evenodd" clip-rule="evenodd" d="M78.2 17.1C127.55 21.8 155.75 54.7 153.4 153.4H45.3C45.3 111.1 92.3 122.85 82.9 54.7" fill="black"/>
<path d="M78.2 17.1C127.55 21.8 155.75 54.7 153.4 153.4H45.3C45.3 111.1 92.3 122.85 82.9 54.7" stroke="black" stroke-width="5" stroke-linecap="round" stroke-linejoin="round"/>
<path fill-rule="evenodd" clip-rule="evenodd" d="M87.6 54.7C89.386 68.377 61.515 89.339 50 97C35.9 106.4 36.746 117.398 26.5 115.8C21.6026 111.382 33.127 101.512 26.5 101.7C21.8 101.7 27.393 107.481 21.8 111.1C17.1 111.1 2.98591 115.8 3.00001 92.3C3.00001 82.9 31.2 35.9 31.2 35.9C31.2 35.9 40.083 26.97 40.6 19.45C37.169 14.7782 38.25 10.05 38.25 5.35C42.95 0.65 52.35 17.1 52.35 17.1H61.75C61.75 17.1 65.416 7.7376 73.5 3C78.2 3 78.2 17.1 78.2 17.1" fill="black"/>
<path d="M87.6 54.7C89.386 68.377 61.515 89.339 50 97C35.9 106.4 36.746 117.398 26.5 115.8C21.6026 111.382 33.127 101.512 26.5 101.7C21.8 101.7 27.393 107.481 21.8 111.1C17.1 111.1 2.98591 115.8 3.00001 92.3C3.00001 82.9 31.2 35.9 31.2 35.9C31.2 35.9 40.083 26.97 40.6 19.45C37.169 14.7782 38.25 10.05 38.25 5.35C42.95 0.65 52.35 17.1 52.35 17.1H61.75C61.75 17.1 65.416 7.7376 73.5 3C78.2 3 78.2 17.1 78.2 17.1" stroke="black" stroke-width="5" stroke-linecap="round" stroke-linejoin="round"/>
<path fill-rule="evenodd" clip-rule="evenodd" d="M19.45 89.95C19.45 90.5732 19.2024 91.171 18.7617 91.6117C18.321 92.0524 17.7233 92.3 17.1 92.3C16.4767 92.3 15.879 92.0524 15.4383 91.6117C14.9976 91.171 14.75 90.5732 14.75 89.95C14.75 89.3267 14.9976 88.729 15.4383 88.2883C15.879 87.8476 16.4767 87.6 17.1 87.6C17.7233 87.6 18.321 87.8476 18.7617 88.2883C19.2024 88.729 19.45 89.3267 19.45 89.95Z" fill="white" stroke="white" stroke-width="5" stroke-linecap="round" stroke-linejoin="round"/>
<path fill-rule="evenodd" clip-rule="evenodd" d="M44.9851 44.125C44.0503 45.7442 42.9392 47.1733 41.8965 48.0979C40.8538 49.0225 39.9648 49.3669 39.425 49.0553C38.8853 48.7436 38.739 47.8015 39.0185 46.4362C39.2979 45.0709 39.9801 43.3942 40.9149 41.775C41.8498 40.1558 42.9608 38.7266 44.0036 37.802C45.0463 36.8774 45.9353 36.533 46.475 36.8447C47.0148 37.1563 47.161 38.0984 46.8816 39.4637C46.6022 40.8291 45.92 42.5058 44.9851 44.125V44.125Z" fill="white" stroke="white" stroke-width="5" stroke-linecap="round" stroke-linejoin="round"/>
<path fill-rule="evenodd" clip-rule="evenodd" d="M90.1851 18.98L88.0701 25.795L90.4201 26.5C105.225 31.2 116.975 38.203 127.55 58.225C138.125 78.247 142.825 106.682 140.475 153.4L140.24 155.75H150.815L151.05 153.4C153.4 106.118 146.914 74.205 135.775 53.102C124.636 31.999 108.562 21.894 92.5821 19.45L90.1851 18.98Z" fill="white"/>
</g>
<defs>
<clipPath id="clip0_101_104">
<rect width="157" height="156" fill="white"/>
</clipPath>
</defs>
</svg>
