<svg width="610" height="610" viewBox="0 0 610 610" fill="none" xmlns="http://www.w3.org/2000/svg">
<g clip-path="url(#clip0_102_131)">
<path d="M313.502 4.11347L373.545 9.45743C423.665 20.3818 463.162 40.7438 492.034 70.5434C527.532 106.245 542.594 150.058 537.222 201.981C533.147 241.37 511.398 276.747 471.976 308.109C458.836 318.563 432.389 335.249 392.635 358.168C365.775 373.02 333.241 393.165 295.036 418.603L243.575 452.683L287.463 456.832C369.439 462.897 414.47 464.724 422.558 462.316C427.53 460.88 433.82 449.618 441.429 428.531L453.425 382.511C453.487 381.914 464.289 382.412 485.83 384.006L518.141 386.396L517.771 389.977C517.049 391.126 508.588 426.283 492.388 495.446C477.508 563.504 469.315 598.981 467.81 601.877L467.439 605.457L274.466 591.182L82.3914 576.972L85.1701 550.116C87.0843 531.614 88.4333 521.491 89.2169 519.744C90.6606 517.446 122.738 490.05 185.449 437.558C266.168 368.357 312.654 326.993 324.907 313.466C326.887 311.809 329.259 309.278 332.023 305.874C350.939 286.225 364.675 267.095 373.233 248.484C382.39 229.917 387.987 210.786 390.024 191.091C391.506 176.768 390.894 162.289 388.188 147.656C376.416 104.087 347.204 77.5698 300.55 68.1046C296.423 67.1979 292.565 66.6118 288.975 66.3462C272.819 65.151 263.751 65.3822 261.77 67.0399L266.507 73.7048C279.263 90.2844 284.23 109.295 281.408 130.736C275.785 167.605 254.796 189.807 218.443 197.341C213.532 198.181 206.889 198.291 198.512 197.671C189.536 197.007 182.717 195.901 178.053 194.353C150.795 183.918 134.934 165.304 130.47 138.513C129.706 134.247 129.879 126.742 130.991 116C132.04 105.854 133.803 97.5649 136.277 91.1327C142.916 73.5825 152.837 59.2818 166.039 48.2309C179.303 36.5831 195.673 26.9693 215.149 19.3893C233.964 12.3619 254.627 7.87666 277.137 5.9336C282.047 5.09412 294.169 4.48741 313.502 4.11347Z" fill="url(#paint0_linear_102_131)"/>
<path d="M313.502 4.11347L314.091 -0.853922L313.821 -0.87796L313.549 -0.8727L313.502 4.11347ZM373.545 9.45743L374.752 4.58438L374.446 4.51784L374.134 4.49004L373.545 9.45743ZM492.034 70.5434L488.377 74.0576L488.399 74.0798L488.421 74.1018L492.034 70.5434ZM471.976 308.109L475.038 311.969L475.038 311.969L471.976 308.109ZM392.635 358.168L394.973 362.511L395.013 362.488L395.054 362.465L392.635 358.168ZM295.036 418.603L297.729 422.73L297.74 422.723L295.036 418.603ZM243.575 452.683L240.882 448.556L229.128 456.341L242.959 457.648L243.575 452.683ZM287.463 456.832L286.846 461.797L286.897 461.802L286.948 461.806L287.463 456.832ZM422.558 462.316L421.289 457.53L421.268 457.535L421.248 457.541L422.558 462.316ZM441.429 428.531L446.141 430.095L446.22 429.876L446.279 429.652L441.429 428.531ZM453.425 382.511L458.276 383.632L458.372 383.26L458.412 382.88L453.425 382.511ZM518.141 386.396L523.128 386.765L523.642 381.792L518.656 381.423L518.141 386.396ZM517.771 389.977L522.001 392.531L522.636 391.52L522.757 390.346L517.771 389.977ZM492.388 495.446L487.507 494.448L487.499 494.484L487.491 494.521L492.388 495.446ZM467.81 601.877L463.371 599.687L462.922 600.55L462.823 601.508L467.81 601.877ZM467.439 605.457L466.925 610.431L471.911 610.8L472.426 605.826L467.439 605.457ZM82.3914 576.972L77.405 576.603L76.8904 581.577L81.8768 581.946L82.3914 576.972ZM89.2169 519.744L84.9871 517.19L84.7959 517.495L84.6491 517.822L89.2169 519.744ZM185.449 437.558L188.611 441.336L188.634 441.316L188.658 441.296L185.449 437.558ZM324.907 313.466L321.745 309.689L321.468 309.92L321.226 310.187L324.907 313.466ZM332.023 305.874L328.451 302.479L328.298 302.638L328.16 302.808L332.023 305.874ZM373.233 248.484L368.745 246.392L368.714 246.455L368.685 246.518L373.233 248.484ZM388.188 147.656L393.119 146.617L393.083 146.423L393.031 146.233L388.188 147.656ZM300.55 68.1046L299.336 72.9759L299.374 72.9844L299.414 72.9924L300.55 68.1046ZM261.77 67.0399L258.608 63.2622L255.006 66.2773L257.65 69.9965L261.77 67.0399ZM266.507 73.7048L262.387 76.6614L262.439 76.7353L262.494 76.8072L266.507 73.7048ZM281.408 130.736L286.364 131.345L286.372 131.294L286.378 131.243L281.408 130.736ZM218.443 197.341L219.153 202.256L219.241 202.241L219.329 202.223L218.443 197.341ZM178.053 194.353L176.137 199.015L176.24 199.054L176.345 199.089L178.053 194.353ZM130.47 138.513L135.416 137.56L135.411 137.531L135.406 137.501L130.47 138.513ZM136.277 91.1327L140.952 92.7972L140.957 92.7839L140.962 92.7706L136.277 91.1327ZM166.039 48.2309L169.201 52.0085L169.249 51.9688L169.295 51.9279L166.039 48.2309ZM215.149 19.3893L213.506 14.7265L213.473 14.7389L213.44 14.7517L215.149 19.3893ZM277.137 5.9336L277.427 10.902L277.638 10.8838L277.847 10.848L277.137 5.9336ZM312.913 9.08086L372.956 14.4248L374.134 4.49004L314.091 -0.853922L312.913 9.08086ZM372.338 14.3305C421.731 25.0963 460.3 45.079 488.377 74.0576L495.691 67.0291C466.023 36.4086 425.599 15.6674 374.752 4.58438L372.338 14.3305ZM488.421 74.1018C522.871 108.751 537.461 151.115 532.236 201.612L542.209 202.35C547.728 149.001 532.193 103.74 495.648 66.985L488.421 74.1018ZM532.236 201.612C528.335 239.309 507.543 273.519 468.915 304.249L475.038 311.969C515.254 279.975 537.958 243.432 542.209 202.35L532.236 201.612ZM468.915 304.249C456.123 314.426 430.003 330.933 390.216 353.871L395.054 362.465C434.774 339.566 461.549 322.7 475.038 311.969L468.915 304.249ZM390.297 353.825C363.267 368.771 330.604 389 292.331 414.483L297.74 422.723C335.879 397.329 368.282 377.268 394.973 362.511L390.297 353.825ZM292.342 414.476L240.882 448.556L246.269 456.81L297.729 422.73L292.342 414.476ZM242.959 457.648L286.846 461.797L288.079 451.867L244.192 447.718L242.959 457.648ZM286.948 461.806C327.954 464.839 359.771 466.817 382.37 467.734C393.664 468.193 402.711 468.389 409.476 468.315C412.856 468.278 415.721 468.173 418.041 467.992C420.269 467.819 422.309 467.555 423.868 467.09L421.248 457.541C420.785 457.679 419.648 457.885 417.545 458.049C415.534 458.205 412.914 458.306 409.655 458.341C403.14 458.412 394.289 458.224 383.067 457.768C360.634 456.858 328.947 454.89 287.977 451.859L286.948 461.806ZM423.827 467.102C426.437 466.348 428.563 464.537 430.251 462.635C432.001 460.662 433.7 458.109 435.37 455.118C438.716 449.128 442.301 440.738 446.141 430.095L436.716 426.967C432.948 437.41 429.584 445.196 426.639 450.467C425.165 453.107 423.883 454.957 422.817 456.158C421.689 457.43 421.165 457.565 421.289 457.53L423.827 467.102ZM446.279 429.652L458.276 383.632L448.575 381.39L436.578 427.41L446.279 429.652ZM458.412 382.88C458.203 384.896 456.911 386.046 456.326 386.467C455.726 386.9 455.187 387.085 455.006 387.144C454.768 387.222 454.591 387.258 454.522 387.271C454.48 387.279 454.448 387.284 454.429 387.286C454.41 387.289 454.4 387.291 454.399 387.291C454.398 387.291 454.421 387.288 454.472 387.284C454.522 387.281 454.59 387.276 454.678 387.272C454.856 387.264 455.09 387.258 455.387 387.255C456.601 387.244 458.517 387.295 461.197 387.419C466.526 387.665 474.555 388.183 485.315 388.979L486.344 379.032C475.564 378.235 467.421 377.708 461.949 377.455C459.228 377.33 457.086 377.268 455.584 377.282C454.862 377.288 454.129 377.312 453.505 377.386C453.236 377.418 452.702 377.488 452.12 377.679C451.85 377.767 451.245 377.983 450.599 378.449C449.968 378.903 448.652 380.089 448.439 382.142L458.412 382.88ZM485.315 388.979L517.627 391.37L518.656 381.423L486.344 379.032L485.315 388.979ZM513.155 386.027L512.785 389.608L522.757 390.346L523.128 386.765L513.155 386.027ZM513.541 387.423C513.196 387.972 513.006 388.516 512.979 388.589C512.9 388.804 512.827 389.029 512.762 389.235C512.631 389.655 512.477 390.191 512.305 390.815C511.959 392.073 511.496 393.851 510.919 396.13C509.764 400.698 508.127 407.384 506.01 416.178C501.776 433.772 495.608 459.864 487.507 494.448L497.268 496.444C505.368 461.865 511.53 435.797 515.757 418.235C517.871 409.451 519.497 402.81 520.638 398.301C521.209 396.042 521.652 394.345 521.97 393.19C522.13 392.607 522.248 392.202 522.328 391.947C522.369 391.816 522.386 391.77 522.382 391.78C522.38 391.784 522.36 391.84 522.322 391.927C522.301 391.976 522.194 392.224 522.001 392.531L513.541 387.423ZM487.491 494.521C480.052 528.545 474.289 554.405 470.199 572.114C468.154 580.973 466.533 587.766 465.333 592.512C464.732 594.889 464.246 596.717 463.871 598.019C463.433 599.543 463.274 599.873 463.371 599.687L472.248 604.066C472.721 603.156 473.148 601.744 473.504 600.508C473.924 599.05 474.441 597.1 475.052 594.68C476.277 589.833 477.917 582.96 479.967 574.08C484.071 556.312 489.844 530.406 497.285 496.371L487.491 494.521ZM462.823 601.508L462.453 605.089L472.426 605.826L472.796 602.245L462.823 601.508ZM467.954 600.484L274.981 586.208L273.952 596.155L466.925 610.431L467.954 600.484ZM274.981 586.208L82.9059 571.999L81.8768 581.946L273.952 596.155L274.981 586.208ZM87.3777 577.341L90.1565 550.484L80.1837 549.747L77.405 576.603L87.3777 577.341ZM90.1565 550.484C91.1119 541.25 91.9218 534.151 92.5866 529.162C92.9196 526.662 93.21 524.74 93.4571 523.365C93.7473 521.749 93.8912 521.43 93.7847 521.667L84.6491 517.822C84.1507 518.932 83.8322 520.533 83.5893 521.885C83.3032 523.477 82.9898 525.57 82.6484 528.132C81.9642 533.267 81.1425 540.48 80.1837 549.747L90.1565 550.484ZM93.4467 522.299C93.2038 522.685 93.0316 522.814 93.405 522.429C93.6563 522.169 94.0416 521.792 94.5848 521.281C95.6651 520.263 97.2353 518.84 99.3164 516.997C103.471 513.317 109.547 508.061 117.559 501.218C133.578 487.538 157.259 467.579 188.611 441.336L182.287 433.781C150.928 460.03 127.215 480.015 111.156 493.73C103.13 500.585 96.9966 505.889 92.7706 509.633C90.6615 511.501 88.9989 513.006 87.8036 514.131C87.2091 514.691 86.696 515.19 86.2882 515.61C86.0025 515.905 85.4104 516.516 84.9871 517.19L93.4467 522.299ZM188.658 441.296C269.224 372.226 316.052 330.584 328.587 316.745L321.226 310.187C309.256 323.402 263.112 364.488 182.24 433.821L188.658 441.296ZM328.069 317.244C330.421 315.274 333.036 312.45 335.887 308.94L328.16 302.808C325.482 306.106 323.352 308.343 321.745 309.689L328.069 317.244ZM335.595 309.269C354.791 289.329 368.917 269.727 377.782 250.449L368.685 246.518C360.433 264.463 347.086 283.121 328.451 302.479L335.595 309.269ZM377.721 250.576C387.136 231.485 392.909 211.773 395.011 191.46L385.038 190.722C383.064 209.8 377.643 228.348 368.745 246.392L377.721 250.576ZM395.011 191.46C396.544 176.646 395.907 161.694 393.119 146.617L383.257 148.694C385.881 162.885 386.469 176.889 385.038 190.722L395.011 191.46ZM393.031 146.233C386.939 123.685 376.262 105.321 360.886 91.3635C345.521 77.416 325.708 68.0903 301.687 63.2169L299.414 72.9924C322.046 77.5841 340.166 86.2495 354.013 98.8191C367.849 111.379 377.664 128.058 383.344 149.079L393.031 146.233ZM301.765 63.2333C297.447 62.2847 293.353 61.6586 289.489 61.3728L288.46 71.3197C291.777 71.565 295.4 72.1111 299.336 72.9759L301.765 63.2333ZM289.489 61.3728C281.353 60.7709 274.854 60.5158 270.073 60.6378C267.693 60.6984 265.597 60.8551 263.874 61.1497C262.429 61.3967 260.258 61.8814 258.608 63.2622L264.932 70.8175C264.273 71.3695 263.978 71.2037 265.295 70.9785C266.334 70.8008 267.887 70.6636 270.041 70.6087C274.327 70.4994 280.44 70.7264 288.46 71.3197L289.489 61.3728ZM257.65 69.9965L262.387 76.6614L270.628 70.7482L265.891 64.0833L257.65 69.9965ZM262.494 76.8072C274.45 92.3475 279.092 110.057 276.438 130.229L286.378 131.243C289.367 108.532 284.075 88.2212 270.52 70.6025L262.494 76.8072ZM276.453 130.127C273.76 147.781 267.461 161.506 257.844 171.679C248.232 181.847 234.932 188.859 217.557 192.46L219.329 202.223C238.307 198.289 253.678 190.434 265.054 178.4C276.426 166.371 283.433 150.56 286.364 131.345L276.453 130.127ZM217.733 192.427C213.413 193.166 207.236 193.305 199.026 192.698L197.997 202.645C206.541 203.277 213.652 203.196 219.153 202.256L217.733 192.427ZM199.026 192.698C190.184 192.044 183.847 190.974 179.762 189.618L176.345 199.089C181.587 200.829 188.888 201.971 197.997 202.645L199.026 192.698ZM179.97 189.692C154.168 179.814 139.573 162.511 135.416 137.56L125.524 139.466C130.294 168.098 147.421 188.021 176.137 199.015L179.97 189.692ZM135.406 137.501C134.778 133.996 134.864 127.13 135.977 116.369L126.004 115.631C124.895 126.355 124.633 134.498 125.534 139.525L135.406 137.501ZM135.977 116.369C137.001 106.471 138.696 98.6611 140.952 92.7972L131.602 89.4683C128.909 96.4687 127.08 105.237 126.004 115.631L135.977 116.369ZM140.962 92.7706C147.32 75.9659 156.749 62.4316 169.201 52.0085L162.877 44.4533C148.925 56.132 138.513 71.199 131.591 89.4948L140.962 92.7706ZM169.295 51.9279C182.025 40.7495 197.844 31.427 216.858 24.0269L213.44 14.7517C193.503 22.5115 176.582 32.4167 162.784 44.5338L169.295 51.9279ZM216.791 24.0522C235.117 17.2075 255.318 12.8104 277.427 10.902L276.847 0.965232C253.936 2.94292 232.811 7.51626 213.506 14.7265L216.791 24.0522ZM277.847 10.848C282.297 10.0872 293.986 9.47621 313.455 9.09964L313.549 -0.8727C294.352 -0.5014 281.798 0.100988 276.427 1.01917L277.847 10.848Z" fill="black"/>
</g>
<defs>
<linearGradient id="paint0_linear_102_131" x1="-41.1664" y1="-82.4301" x2="509.392" y2="107.055" gradientUnits="userSpaceOnUse">
<stop stop-color="#FF9797"/>
<stop offset="1" stop-color="#FF0000"/>
</linearGradient>
<clipPath id="clip0_102_131">
<rect width="610" height="610" fill="white"/>
</clipPath>
</defs>
</svg>
