<svg width="1000" height="1000" viewBox="0 0 1000 1000" fill="none" xmlns="http://www.w3.org/2000/svg">
<g style="mix-blend-mode:multiply" opacity="0.2" clip-path="url(#clip0_2_2)">
<path d="M185.209 319.368C182.332 303.052 193.227 287.492 209.544 284.615L241.55 278.971L252.403 340.522L190.853 351.375L185.209 319.368Z" fill="#656565"/>
<rect width="62.5" height="62.5" transform="translate(223.412 536.026) rotate(-10)" fill="#656565"/>
<rect x="241.55" y="278.971" width="62.5" height="62.5" transform="rotate(-10 241.55 278.971)" fill="black"/>
<rect x="284.963" y="525.173" width="62.5" height="62.5" transform="rotate(-10 284.963 525.173)" fill="black"/>
<rect width="62.5" height="62.5" transform="translate(303.101 268.118) rotate(-10)" fill="#656565"/>
<rect width="62.5" height="62.5" transform="translate(346.513 514.32) rotate(-10)" fill="#656565"/>
<rect x="364.651" y="257.265" width="62.5" height="62.5" transform="rotate(-10 364.651 257.265)" fill="black"/>
<rect x="408.064" y="503.467" width="62.5" height="62.5" transform="rotate(-10 408.064 503.467)" fill="black"/>
<rect width="62.5" height="62.5" transform="translate(426.202 246.412) rotate(-10)" fill="#656565"/>
<rect width="62.5" height="62.5" transform="translate(469.614 492.614) rotate(-10)" fill="#656565"/>
<rect x="487.752" y="235.559" width="62.5" height="62.5" transform="rotate(-10 487.752 235.559)" fill="black"/>
<rect x="531.164" y="481.761" width="62.5" height="62.5" transform="rotate(-10 531.164 481.761)" fill="black"/>
<rect width="62.5" height="62.5" transform="translate(549.303 224.706) rotate(-10)" fill="#656565"/>
<rect width="62.5" height="62.5" transform="translate(592.715 470.908) rotate(-10)" fill="#656565"/>
<path d="M610.853 213.853L642.86 208.209C659.176 205.332 674.736 216.227 677.613 232.544L683.257 264.55L621.706 275.403L610.853 213.853Z" fill="black"/>
<rect x="654.265" y="460.055" width="62.5" height="62.5" transform="rotate(-10 654.265 460.055)" fill="black"/>
<rect width="62.5" height="62.5" transform="translate(694.11 326.101) rotate(170)" fill="#656565"/>
<rect width="62.5" height="62.5" transform="translate(737.522 572.303) rotate(170)" fill="#656565"/>
<rect x="632.559" y="336.954" width="62.5" height="62.5" transform="rotate(170 632.559 336.954)" fill="black"/>
<rect x="675.971" y="583.156" width="62.5" height="62.5" transform="rotate(170 675.971 583.156)" fill="black"/>
<rect width="62.5" height="62.5" transform="translate(571.009 347.807) rotate(170)" fill="#656565"/>
<rect width="62.5" height="62.5" transform="translate(614.421 594.009) rotate(170)" fill="#656565"/>
<rect x="509.458" y="358.66" width="62.5" height="62.5" transform="rotate(170 509.458 358.66)" fill="black"/>
<rect x="552.87" y="604.862" width="62.5" height="62.5" transform="rotate(170 552.87 604.862)" fill="black"/>
<rect width="62.5" height="62.5" transform="translate(447.908 369.513) rotate(170)" fill="#656565"/>
<rect width="62.5" height="62.5" transform="translate(491.32 615.715) rotate(170)" fill="#656565"/>
<rect x="386.357" y="380.366" width="62.5" height="62.5" transform="rotate(170 386.357 380.366)" fill="black"/>
<rect x="429.77" y="626.568" width="62.5" height="62.5" transform="rotate(170 429.77 626.568)" fill="black"/>
<rect width="62.5" height="62.5" transform="translate(324.807 391.219) rotate(170)" fill="#656565"/>
<rect width="62.5" height="62.5" transform="translate(368.219 637.421) rotate(170)" fill="#656565"/>
<rect x="263.257" y="402.072" width="62.5" height="62.5" transform="rotate(170 263.257 402.072)" fill="black"/>
<rect x="306.669" y="648.274" width="62.5" height="62.5" transform="rotate(170 306.669 648.274)" fill="black"/>
<rect width="62.5" height="62.5" transform="translate(201.706 412.925) rotate(-10)" fill="#656565"/>
<rect width="62.5" height="62.5" transform="translate(245.118 659.127) rotate(-10)" fill="#656565"/>
<rect x="263.257" y="402.072" width="62.5" height="62.5" transform="rotate(-10 263.257 402.072)" fill="black"/>
<rect x="306.669" y="648.274" width="62.5" height="62.5" transform="rotate(-10 306.669 648.274)" fill="black"/>
<rect width="62.5" height="62.5" transform="translate(324.807 391.219) rotate(-10)" fill="#656565"/>
<rect width="62.5" height="62.5" transform="translate(368.219 637.421) rotate(-10)" fill="#656565"/>
<rect x="386.357" y="380.366" width="62.5" height="62.5" transform="rotate(-10 386.357 380.366)" fill="black"/>
<rect x="429.77" y="626.568" width="62.5" height="62.5" transform="rotate(-10 429.77 626.568)" fill="black"/>
<rect width="62.5" height="62.5" transform="translate(447.908 369.513) rotate(-10)" fill="#656565"/>
<rect width="62.5" height="62.5" transform="translate(491.32 615.715) rotate(-10)" fill="#656565"/>
<rect x="509.458" y="358.66" width="62.5" height="62.5" transform="rotate(-10 509.458 358.66)" fill="black"/>
<rect x="552.87" y="604.862" width="62.5" height="62.5" transform="rotate(-10 552.87 604.862)" fill="black"/>
<rect width="62.5" height="62.5" transform="translate(571.009 347.807) rotate(-10)" fill="#656565"/>
<rect width="62.5" height="62.5" transform="translate(614.421 594.009) rotate(-10)" fill="#656565"/>
<rect x="632.559" y="336.954" width="62.5" height="62.5" transform="rotate(-10 632.559 336.954)" fill="black"/>
<rect x="675.971" y="583.156" width="62.5" height="62.5" transform="rotate(-10 675.971 583.156)" fill="black"/>
<rect width="62.5" height="62.5" transform="translate(715.816 449.202) rotate(170)" fill="#656565"/>
<path d="M754.019 665.86C756.896 682.176 746.001 697.736 729.684 700.613L697.677 706.257L686.824 644.706L748.375 633.853L754.019 665.86Z" fill="#656565"/>
<rect x="654.265" y="460.055" width="62.5" height="62.5" transform="rotate(170 654.265 460.055)" fill="black"/>
<rect x="697.677" y="706.257" width="62.5" height="62.5" transform="rotate(170 697.677 706.257)" fill="black"/>
<rect width="62.5" height="62.5" transform="translate(592.715 470.908) rotate(170)" fill="#656565"/>
<rect width="62.5" height="62.5" transform="translate(636.127 717.11) rotate(170)" fill="#656565"/>
<rect x="531.164" y="481.761" width="62.5" height="62.5" transform="rotate(170 531.164 481.761)" fill="black"/>
<rect x="574.576" y="727.963" width="62.5" height="62.5" transform="rotate(170 574.576 727.963)" fill="black"/>
<rect width="62.5" height="62.5" transform="translate(469.614 492.614) rotate(170)" fill="#656565"/>
<rect width="62.5" height="62.5" transform="translate(513.026 738.816) rotate(170)" fill="#656565"/>
<rect x="408.064" y="503.467" width="62.5" height="62.5" transform="rotate(170 408.064 503.467)" fill="black"/>
<rect x="451.476" y="749.669" width="62.5" height="62.5" transform="rotate(170 451.476 749.669)" fill="black"/>
<rect width="62.5" height="62.5" transform="translate(346.513 514.32) rotate(170)" fill="#656565"/>
<rect width="62.5" height="62.5" transform="translate(389.925 760.522) rotate(170)" fill="#656565"/>
<rect x="284.963" y="525.173" width="62.5" height="62.5" transform="rotate(170 284.963 525.173)" fill="black"/>
<path d="M328.375 771.375L296.368 777.019C280.051 779.896 264.492 769.001 261.615 752.684L256.318 722.647C256.127 721.559 256.853 720.522 257.941 720.33L317.522 709.824L328.375 771.375Z" fill="black"/>
</g>
<rect x="181.738" y="291.041" width="497" height="497" rx="23.5" transform="rotate(-10 181.738 291.041)" stroke="black" stroke-width="3"/>
<path d="M654.107 234.282L714.099 240.434C764.278 252.052 804.004 272.994 833.277 303.26C869.253 339.534 884.966 383.671 880.416 435.673C876.965 475.122 855.817 510.313 816.974 541.245C804.026 551.556 777.898 567.941 738.591 590.401C712.023 604.94 679.877 624.714 642.154 649.721L591.341 683.22L635.195 687.96C717.082 695.125 762.041 697.552 770.073 695.244C775.012 693.869 781.112 682.658 788.374 661.611L799.626 615.616C799.678 615.018 810.463 615.661 831.981 617.543L864.258 620.367L863.944 623.954C863.241 625.097 855.348 660.243 840.264 729.391C826.48 797.449 818.86 832.919 817.403 835.803L817.089 839.39L624.325 822.525L432.458 805.739L434.811 778.842C436.432 760.312 437.62 750.177 438.375 748.437C439.78 746.15 471.357 719.099 533.108 667.284C612.566 598.949 658.302 558.08 670.316 544.676C672.266 543.04 674.594 540.533 677.298 537.156C695.865 517.7 709.272 498.696 717.52 480.145C726.366 461.645 731.652 442.533 733.378 422.809C734.633 408.463 733.796 393.935 730.867 379.224C718.441 335.374 688.88 308.395 642.184 298.287C638.052 297.323 634.193 296.684 630.607 296.37C614.468 294.958 605.424 295.071 603.474 296.707L608.304 303.454C621.29 320.249 626.543 339.38 624.062 360.845C619.027 397.747 598.432 419.736 562.278 426.811C557.392 427.589 550.764 427.611 542.396 426.879C533.431 426.095 526.609 424.895 521.932 423.282C494.571 412.456 478.455 393.579 473.584 366.652C472.754 362.364 472.81 354.84 473.751 344.081C474.64 333.92 476.269 325.63 478.637 319.212C484.988 301.699 494.663 287.488 507.664 276.58C520.716 265.074 536.899 255.648 556.213 248.304C574.876 241.504 595.423 237.279 617.852 235.628C622.738 234.85 634.824 234.402 654.107 234.282Z" fill="url(#paint0_linear_2_2)"/>
<path d="M654.107 234.282L655.127 224.334L654.588 224.279L654.045 224.282L654.107 234.282ZM714.099 240.434L716.355 230.692L715.744 230.551L715.12 230.487L714.099 240.434ZM833.277 303.26L826.089 310.213L826.133 310.258L826.177 310.302L833.277 303.26ZM816.974 541.245L823.203 549.068L823.203 549.068L816.974 541.245ZM738.591 590.401L743.392 599.173L743.472 599.129L743.552 599.083L738.591 590.401ZM642.154 649.721L647.658 658.07L647.669 658.063L647.679 658.056L642.154 649.721ZM591.341 683.22L585.837 674.871L562.624 690.174L590.266 693.162L591.341 683.22ZM635.195 687.96L634.12 697.902L634.222 697.913L634.323 697.922L635.195 687.96ZM770.073 695.244L767.391 685.61L767.351 685.621L767.311 685.633L770.073 695.244ZM788.374 661.611L797.827 664.872L797.978 664.436L798.088 663.987L788.374 661.611ZM799.626 615.616L809.339 617.992L809.521 617.25L809.588 616.488L799.626 615.616ZM864.258 620.367L874.219 621.239L875.091 611.277L865.129 610.405L864.258 620.367ZM863.944 623.954L872.464 629.188L873.7 627.177L873.906 624.825L863.944 623.954ZM840.264 729.391L830.494 727.26L830.478 727.333L830.463 727.406L840.264 729.391ZM817.403 835.803L808.477 831.294L807.609 833.013L807.441 834.932L817.403 835.803ZM817.089 839.39L816.217 849.352L826.179 850.223L827.051 840.261L817.089 839.39ZM432.458 805.739L422.496 804.867L421.625 814.829L431.587 815.701L432.458 805.739ZM438.375 748.437L429.854 743.202L429.482 743.807L429.2 744.459L438.375 748.437ZM533.108 667.284L539.536 674.945L539.583 674.906L539.629 674.866L533.108 667.284ZM670.316 544.676L663.888 537.016L663.344 537.473L662.87 538.002L670.316 544.676ZM677.298 537.156L670.064 530.252L669.764 530.566L669.493 530.905L677.298 537.156ZM717.52 480.145L708.499 475.831L708.439 475.956L708.383 476.082L717.52 480.145ZM730.867 379.224L740.674 377.271L740.597 376.881L740.488 376.498L730.867 379.224ZM642.184 298.287L639.912 308.025L639.99 308.043L640.068 308.06L642.184 298.287ZM603.474 296.707L597.046 289.046L589.952 294.999L595.343 302.528L603.474 296.707ZM608.304 303.454L600.173 309.275L600.281 309.425L600.393 309.57L608.304 303.454ZM624.062 360.845L633.97 362.197L633.984 362.095L633.996 361.993L624.062 360.845ZM562.278 426.811L563.848 436.687L564.024 436.659L564.199 436.625L562.278 426.811ZM521.932 423.282L518.253 432.58L518.46 432.662L518.67 432.735L521.932 423.282ZM473.584 366.652L483.424 364.872L483.413 364.813L483.402 364.754L473.584 366.652ZM478.637 319.212L488.019 322.674L488.029 322.648L488.038 322.621L478.637 319.212ZM507.664 276.58L514.091 284.24L514.185 284.162L514.276 284.081L507.664 276.58ZM556.213 248.304L552.79 238.908L552.724 238.932L552.658 238.957L556.213 248.304ZM617.852 235.628L618.586 245.601L619.007 245.57L619.423 245.503L617.852 235.628ZM653.087 244.23L713.079 250.382L715.12 230.487L655.127 224.334L653.087 244.23ZM711.844 250.177C760.565 261.457 798.429 281.614 826.089 310.213L840.465 296.308C809.579 264.374 767.99 242.647 716.355 230.692L711.844 250.177ZM826.177 310.302C860.03 344.435 874.754 385.657 870.454 434.801L890.378 436.544C895.178 381.686 878.476 334.632 840.377 296.219L826.177 310.302ZM870.454 434.801C867.299 470.861 848.023 503.736 810.744 533.422L823.203 549.068C863.612 516.889 886.63 479.383 890.378 436.544L870.454 434.801ZM810.744 533.422C798.483 543.186 773.003 559.221 733.63 581.718L743.552 599.083C782.793 576.661 809.568 559.925 823.203 549.068L810.744 533.422ZM733.79 581.628C706.886 596.352 674.484 616.291 636.629 641.387L647.679 658.056C685.27 633.137 717.16 613.529 743.392 599.173L733.79 581.628ZM636.65 641.372L585.837 674.871L596.845 691.569L647.658 658.07L636.65 641.372ZM590.266 693.162L634.12 697.902L636.269 678.018L592.416 673.278L590.266 693.162ZM634.323 697.922C675.303 701.508 707.145 703.917 729.791 705.14C741.102 705.751 750.229 706.072 757.103 706.087C760.535 706.095 763.514 706.027 765.98 705.866C768.263 705.717 770.743 705.456 772.836 704.854L767.311 685.633C767.395 685.608 766.713 685.776 764.68 685.908C762.83 686.029 760.34 686.094 757.148 686.087C750.774 686.073 742.037 685.772 730.869 685.169C708.555 683.964 676.973 681.577 636.066 677.998L634.323 697.922ZM772.755 704.877C776.706 703.777 779.585 701.16 781.513 698.962C783.564 696.624 785.421 693.735 787.136 690.584C790.576 684.262 794.127 675.595 797.827 664.872L778.921 658.349C775.359 668.673 772.229 676.135 769.569 681.025C768.233 683.478 767.186 684.966 766.477 685.774C765.645 686.723 765.91 686.022 767.391 685.61L772.755 704.877ZM798.088 663.987L809.339 617.992L789.912 613.24L778.661 659.234L798.088 663.987ZM809.588 616.488C809.233 620.544 806.679 622.835 805.502 623.681C804.295 624.55 803.193 624.921 802.788 625.049C801.894 625.333 801.218 625.393 801.194 625.395C800.977 625.418 801.045 625.398 801.636 625.4C802.704 625.405 804.504 625.474 807.159 625.632C812.408 625.945 820.371 626.566 831.109 627.505L832.852 607.581C822.073 606.638 813.885 605.997 808.348 605.667C805.61 605.504 803.36 605.407 801.719 605.4C800.955 605.397 800.003 605.41 799.102 605.505C798.736 605.543 797.802 605.649 796.734 605.988C796.243 606.144 795.074 606.545 793.822 607.446C792.6 608.325 790.022 610.651 789.664 614.745L809.588 616.488ZM831.109 627.505L863.386 630.329L865.129 610.405L832.852 607.581L831.109 627.505ZM854.296 619.496L853.982 623.082L873.906 624.825L874.219 621.239L854.296 619.496ZM855.423 618.719C854.774 619.776 854.441 620.792 854.425 620.837C854.31 621.163 854.214 621.477 854.141 621.72C853.992 622.223 853.83 622.823 853.663 623.467C853.324 624.775 852.88 626.593 852.338 628.882C851.25 633.476 849.716 640.183 847.74 648.979C843.787 666.583 838.037 692.681 830.494 727.26L850.034 731.522C857.575 696.953 863.314 670.904 867.254 653.362C869.225 644.585 870.739 637.969 871.799 633.491C872.332 631.244 872.738 629.588 873.023 628.486C873.169 627.924 873.263 627.584 873.314 627.412C873.342 627.319 873.331 627.362 873.288 627.484C873.267 627.544 873.212 627.699 873.124 627.907C873.069 628.039 872.85 628.56 872.464 629.188L855.423 618.719ZM830.463 727.406C823.573 761.424 818.231 787.26 814.434 804.937C812.533 813.783 811.031 820.534 809.92 825.227C809.363 827.582 808.921 829.348 808.588 830.572C808.135 832.237 808.108 832.025 808.477 831.294L826.328 840.312C827.062 838.86 827.591 836.909 827.888 835.817C828.305 834.283 828.805 832.273 829.382 829.833C830.541 824.938 832.078 818.027 833.988 809.138C837.811 791.344 843.171 765.415 850.065 731.376L830.463 727.406ZM807.441 834.932L807.127 838.518L827.051 840.261L827.365 836.675L807.441 834.932ZM817.961 829.428L625.197 812.563L623.454 832.487L816.217 849.352L817.961 829.428ZM625.197 812.563L433.33 795.777L431.587 815.701L623.454 832.487L625.197 812.563ZM442.42 806.61L444.773 779.713L424.849 777.97L422.496 804.867L442.42 806.61ZM444.773 779.713C445.581 770.481 446.273 763.429 446.85 758.507C447.14 756.036 447.389 754.198 447.597 752.93C447.882 751.182 447.944 751.505 447.55 752.414L429.2 744.459C428.429 746.239 428.059 748.481 427.859 749.702C427.581 751.403 427.29 753.583 426.986 756.179C426.375 761.393 425.663 768.673 424.849 777.97L444.773 779.713ZM446.895 753.671C446.335 754.583 445.79 755.076 446.199 754.65C446.369 754.473 446.685 754.16 447.194 753.678C448.199 752.725 449.698 751.359 451.732 749.55C455.784 745.946 461.737 740.779 469.617 734.028C485.367 720.537 508.667 700.847 539.536 674.945L526.68 659.624C495.798 685.537 472.435 705.28 456.606 718.839C448.698 725.614 442.633 730.877 438.44 734.607C436.351 736.465 434.67 737.992 433.438 739.159C432.829 739.737 432.262 740.289 431.784 740.786C431.547 741.032 430.59 742.004 429.854 743.202L446.895 753.671ZM539.629 674.866C618.786 606.79 665.196 565.372 677.763 551.351L662.87 538.002C651.409 550.788 606.347 591.109 526.588 659.702L539.629 674.866ZM676.744 552.337C679.428 550.085 682.23 546.995 685.104 543.407L669.493 530.905C666.957 534.071 665.105 535.995 663.888 537.016L676.744 552.337ZM684.533 544.06C703.65 524.027 717.819 504.087 726.658 484.207L708.383 476.082C700.725 493.306 688.08 511.373 670.064 530.252L684.533 544.06ZM726.542 484.459C735.887 464.917 741.506 444.642 743.34 423.68L723.416 421.937C721.798 440.425 716.846 458.374 708.499 475.831L726.542 484.459ZM743.34 423.68C744.681 408.352 743.781 392.873 740.674 377.271L721.059 381.177C723.811 394.997 724.585 408.575 723.416 421.937L743.34 423.68ZM740.488 376.498C733.84 353.036 722.457 333.628 706.118 318.716C689.801 303.824 669.038 293.868 644.299 288.513L640.068 308.06C662.026 312.814 679.391 321.401 692.636 333.488C705.858 345.556 715.468 361.562 721.246 381.95L740.488 376.498ZM644.455 288.548C639.942 287.495 635.61 286.77 631.478 286.408L629.735 306.332C632.776 306.598 636.162 307.151 639.912 308.025L644.455 288.548ZM631.478 286.408C623.293 285.692 616.612 285.334 611.596 285.396C609.109 285.427 606.75 285.563 604.696 285.89C603.194 286.128 599.808 286.729 597.046 289.046L609.902 304.367C608.115 305.866 606.591 305.84 607.837 305.641C608.531 305.531 609.808 305.42 611.844 305.395C615.872 305.345 621.782 305.637 629.735 306.332L631.478 286.408ZM595.343 302.528L600.173 309.275L616.435 297.632L611.605 290.885L595.343 302.528ZM600.393 309.57C611.751 324.26 616.315 340.773 614.128 359.697L633.996 361.993C636.77 337.987 630.829 316.238 616.216 297.337L600.393 309.57ZM614.154 359.493C611.85 376.381 606.116 389.021 597.541 398.177C588.974 407.324 576.841 413.772 560.357 416.998L564.199 436.625C583.869 432.775 600.111 424.69 612.138 411.849C624.158 399.016 631.24 382.211 633.97 362.197L614.154 359.493ZM560.707 416.936C556.996 417.526 551.302 417.62 543.268 416.917L541.525 436.841C550.226 437.602 557.787 437.651 563.848 436.687L560.707 416.936ZM543.268 416.917C534.569 416.156 528.71 415.042 525.194 413.829L518.67 432.735C524.508 434.749 532.292 436.033 541.525 436.841L543.268 416.917ZM525.611 413.983C501.175 404.314 487.626 388.099 483.424 364.872L463.743 368.433C469.284 399.06 487.968 420.597 518.253 432.58L525.611 413.983ZM483.402 364.754C482.868 361.995 482.769 355.749 483.713 344.953L463.789 343.209C462.852 353.93 462.64 362.733 463.765 368.551L483.402 364.754ZM483.713 344.953C484.559 335.288 486.069 327.958 488.019 322.674L469.256 315.75C466.469 323.302 464.722 332.551 463.789 343.209L483.713 344.953ZM488.038 322.621C493.849 306.596 502.568 293.909 514.091 284.24L501.236 268.919C486.758 281.067 476.127 296.802 469.236 315.803L488.038 322.621ZM514.276 284.081C526.277 273.502 541.37 264.647 559.767 257.651L552.658 238.957C532.428 246.65 515.155 256.645 501.051 269.078L514.276 284.081ZM559.636 257.7C577.328 251.254 596.957 247.193 618.586 245.601L617.118 225.655C593.889 227.365 572.424 231.755 552.79 238.908L559.636 257.7ZM619.423 245.503C623.393 244.872 634.614 244.404 654.169 244.282L654.045 224.282C635.033 224.401 622.084 224.829 616.282 225.752L619.423 245.503Z" fill="black"/>
<defs>
<linearGradient id="paint0_linear_2_2" x1="281.092" y1="163.101" x2="639.327" y2="491.573" gradientUnits="userSpaceOnUse">
<stop stop-color="#FF9797"/>
<stop offset="1" stop-color="#FF0000"/>
</linearGradient>
<clipPath id="clip0_2_2">
<rect width="500" height="500" fill="white" transform="translate(180 289.824) rotate(-10)"/>
</clipPath>
</defs>
</svg>
