<svg width="580" height="580" viewBox="0 0 580 580" fill="none" xmlns="http://www.w3.org/2000/svg">
<rect width="580" height="580" fill="#F5F5F5"/>
<rect width="1000" height="1000" transform="translate(-180 -203)" fill="white"/>
<g style="mix-blend-mode:multiply" opacity="0.2" clip-path="url(#clip0_0_1)">
<path d="M5.20945 116.368C2.33235 100.052 13.2274 84.4917 29.5442 81.6147L61.5505 75.9711L72.4035 137.522L10.853 148.375L5.20945 116.368Z" fill="#656565"/>
<rect width="62.5" height="62.5" transform="translate(43.412 333.026) rotate(-10)" fill="#656565"/>
<rect x="61.5505" y="75.9711" width="62.5" height="62.5" transform="rotate(-10 61.5505 75.9711)" fill="black"/>
<rect x="104.963" y="322.173" width="62.5" height="62.5" transform="rotate(-10 104.963 322.173)" fill="black"/>
<rect width="62.5" height="62.5" transform="translate(123.101 65.1181) rotate(-10)" fill="#656565"/>
<rect width="62.5" height="62.5" transform="translate(166.513 311.32) rotate(-10)" fill="#656565"/>
<rect x="184.651" y="54.2651" width="62.5" height="62.5" transform="rotate(-10 184.651 54.2651)" fill="black"/>
<rect x="228.064" y="300.467" width="62.5" height="62.5" transform="rotate(-10 228.064 300.467)" fill="black"/>
<rect width="62.5" height="62.5" transform="translate(246.202 43.412) rotate(-10)" fill="#656565"/>
<rect width="62.5" height="62.5" transform="translate(289.614 289.614) rotate(-10)" fill="#656565"/>
<rect x="307.752" y="32.559" width="62.5" height="62.5" transform="rotate(-10 307.752 32.559)" fill="black"/>
<rect x="351.164" y="278.761" width="62.5" height="62.5" transform="rotate(-10 351.164 278.761)" fill="black"/>
<rect width="62.5" height="62.5" transform="translate(369.303 21.706) rotate(-10)" fill="#656565"/>
<rect width="62.5" height="62.5" transform="translate(412.715 267.908) rotate(-10)" fill="#656565"/>
<path d="M430.853 10.853L462.86 5.20945C479.176 2.33235 494.736 13.2274 497.613 29.5442L503.257 61.5505L441.706 72.4035L430.853 10.853Z" fill="black"/>
<rect x="474.265" y="257.055" width="62.5" height="62.5" transform="rotate(-10 474.265 257.055)" fill="black"/>
<rect width="62.5" height="62.5" transform="translate(514.11 123.101) rotate(170)" fill="#656565"/>
<rect width="62.5" height="62.5" transform="translate(557.522 369.303) rotate(170)" fill="#656565"/>
<rect x="452.559" y="133.954" width="62.5" height="62.5" transform="rotate(170 452.559 133.954)" fill="black"/>
<rect x="495.971" y="380.156" width="62.5" height="62.5" transform="rotate(170 495.971 380.156)" fill="black"/>
<rect width="62.5" height="62.5" transform="translate(391.009 144.807) rotate(170)" fill="#656565"/>
<rect width="62.5" height="62.5" transform="translate(434.421 391.009) rotate(170)" fill="#656565"/>
<rect x="329.458" y="155.66" width="62.5" height="62.5" transform="rotate(170 329.458 155.66)" fill="black"/>
<rect x="372.87" y="401.862" width="62.5" height="62.5" transform="rotate(170 372.87 401.862)" fill="black"/>
<rect width="62.5" height="62.5" transform="translate(267.908 166.513) rotate(170)" fill="#656565"/>
<rect width="62.5" height="62.5" transform="translate(311.32 412.715) rotate(170)" fill="#656565"/>
<rect x="206.357" y="177.366" width="62.5" height="62.5" transform="rotate(170 206.357 177.366)" fill="black"/>
<rect x="249.77" y="423.568" width="62.5" height="62.5" transform="rotate(170 249.77 423.568)" fill="black"/>
<rect width="62.5" height="62.5" transform="translate(144.807 188.219) rotate(170)" fill="#656565"/>
<rect width="62.5" height="62.5" transform="translate(188.219 434.421) rotate(170)" fill="#656565"/>
<rect x="83.2565" y="199.072" width="62.5" height="62.5" transform="rotate(170 83.2565 199.072)" fill="black"/>
<rect x="126.669" y="445.274" width="62.5" height="62.5" transform="rotate(170 126.669 445.274)" fill="black"/>
<rect width="62.5" height="62.5" transform="translate(21.706 209.925) rotate(-10)" fill="#656565"/>
<rect width="62.5" height="62.5" transform="translate(65.1181 456.127) rotate(-10)" fill="#656565"/>
<rect x="83.2565" y="199.072" width="62.5" height="62.5" transform="rotate(-10 83.2565 199.072)" fill="black"/>
<rect x="126.669" y="445.274" width="62.5" height="62.5" transform="rotate(-10 126.669 445.274)" fill="black"/>
<rect width="62.5" height="62.5" transform="translate(144.807 188.219) rotate(-10)" fill="#656565"/>
<rect width="62.5" height="62.5" transform="translate(188.219 434.421) rotate(-10)" fill="#656565"/>
<rect x="206.357" y="177.366" width="62.5" height="62.5" transform="rotate(-10 206.357 177.366)" fill="black"/>
<rect x="249.77" y="423.568" width="62.5" height="62.5" transform="rotate(-10 249.77 423.568)" fill="black"/>
<rect width="62.5" height="62.5" transform="translate(267.908 166.513) rotate(-10)" fill="#656565"/>
<rect width="62.5" height="62.5" transform="translate(311.32 412.715) rotate(-10)" fill="#656565"/>
<rect x="329.458" y="155.66" width="62.5" height="62.5" transform="rotate(-10 329.458 155.66)" fill="black"/>
<rect x="372.87" y="401.862" width="62.5" height="62.5" transform="rotate(-10 372.87 401.862)" fill="black"/>
<rect width="62.5" height="62.5" transform="translate(391.009 144.807) rotate(-10)" fill="#656565"/>
<rect width="62.5" height="62.5" transform="translate(434.421 391.009) rotate(-10)" fill="#656565"/>
<rect x="452.559" y="133.954" width="62.5" height="62.5" transform="rotate(-10 452.559 133.954)" fill="black"/>
<rect x="495.971" y="380.156" width="62.5" height="62.5" transform="rotate(-10 495.971 380.156)" fill="black"/>
<rect width="62.5" height="62.5" transform="translate(535.816 246.202) rotate(170)" fill="#656565"/>
<path d="M574.019 462.86C576.896 479.176 566.001 494.736 549.684 497.613L517.677 503.257L506.824 441.706L568.375 430.853L574.019 462.86Z" fill="#656565"/>
<rect x="474.265" y="257.055" width="62.5" height="62.5" transform="rotate(170 474.265 257.055)" fill="black"/>
<rect x="517.677" y="503.257" width="62.5" height="62.5" transform="rotate(170 517.677 503.257)" fill="black"/>
<rect width="62.5" height="62.5" transform="translate(412.715 267.908) rotate(170)" fill="#656565"/>
<rect width="62.5" height="62.5" transform="translate(456.127 514.11) rotate(170)" fill="#656565"/>
<rect x="351.164" y="278.761" width="62.5" height="62.5" transform="rotate(170 351.164 278.761)" fill="black"/>
<rect x="394.576" y="524.963" width="62.5" height="62.5" transform="rotate(170 394.576 524.963)" fill="black"/>
<rect width="62.5" height="62.5" transform="translate(289.614 289.614) rotate(170)" fill="#656565"/>
<rect width="62.5" height="62.5" transform="translate(333.026 535.816) rotate(170)" fill="#656565"/>
<rect x="228.064" y="300.467" width="62.5" height="62.5" transform="rotate(170 228.064 300.467)" fill="black"/>
<rect x="271.476" y="546.669" width="62.5" height="62.5" transform="rotate(170 271.476 546.669)" fill="black"/>
<rect width="62.5" height="62.5" transform="translate(166.513 311.32) rotate(170)" fill="#656565"/>
<rect width="62.5" height="62.5" transform="translate(209.925 557.522) rotate(170)" fill="#656565"/>
<rect x="104.963" y="322.173" width="62.5" height="62.5" transform="rotate(170 104.963 322.173)" fill="black"/>
<path d="M148.375 568.375L116.368 574.019C100.051 576.896 84.4917 566.001 81.6146 549.684L76.3184 519.647C76.1266 518.559 76.8529 517.522 77.9407 517.33L137.522 506.824L148.375 568.375Z" fill="black"/>
</g>
<text fill="url(#paint0_linear_0_1)" stroke="black" stroke-width="5" xml:space="preserve" style="white-space: pre" font-family="jsMath-cmbx10" font-size="500" font-weight="bold" letter-spacing="0em"><tspan x="149" y="447.5">2</tspan></text>
<defs>
<linearGradient id="paint0_linear_0_1" x1="-6.5" y1="140" x2="379" y2="436" gradientUnits="userSpaceOnUse">
<stop stop-color="#FF9797"/>
<stop offset="1" stop-color="#FF0000"/>
</linearGradient>
<clipPath id="clip0_0_1">
<rect width="500" height="500" fill="white" transform="translate(0 86.8241) rotate(-10)"/>
</clipPath>
</defs>
</svg>
