<svg width="180" height="165" viewBox="0 0 180 165" fill="none" xmlns="http://www.w3.org/2000/svg">
<g clip-path="url(#clip0_101_110)">
<path fill-rule="evenodd" clip-rule="evenodd" d="M21.8 33.5499C21.8 36.0429 20.8096 38.4339 19.0468 40.1967C17.284 41.9595 14.893 42.9499 12.4 42.9499C9.90696 42.9499 7.51604 41.9595 5.7532 40.1967C3.99035 38.4339 3 36.0429 3 33.5499C3 31.0569 3.99035 28.6659 5.7532 26.9031C7.51604 25.1403 9.90696 24.1499 12.4 24.1499C14.893 24.1499 17.284 25.1403 19.0468 26.9031C20.8096 28.6659 21.8 31.0569 21.8 33.5499V33.5499Z" fill="white" stroke="black" stroke-width="5" stroke-linecap="round" stroke-linejoin="round"/>
<path fill-rule="evenodd" clip-rule="evenodd" d="M99.35 12.4C99.35 14.893 98.3597 17.284 96.5969 19.0468C94.834 20.8096 92.4431 21.8 89.95 21.8C87.457 21.8 85.0661 20.8096 83.3032 19.0468C81.5404 17.284 80.55 14.893 80.55 12.4C80.55 9.90696 81.5404 7.51604 83.3032 5.7532C85.0661 3.99036 87.457 3 89.95 3C92.4431 3 94.834 3.99036 96.5969 5.7532C98.3597 7.51604 99.35 9.90696 99.35 12.4V12.4Z" fill="white" stroke="black" stroke-width="5" stroke-linecap="round" stroke-linejoin="round"/>
<path fill-rule="evenodd" clip-rule="evenodd" d="M176.9 33.5499C176.9 36.0429 175.91 38.4339 174.147 40.1967C172.384 41.9595 169.993 42.9499 167.5 42.9499C165.007 42.9499 162.616 41.9595 160.853 40.1967C159.09 38.4339 158.1 36.0429 158.1 33.5499C158.1 31.0569 159.09 28.6659 160.853 26.9031C162.616 25.1403 165.007 24.1499 167.5 24.1499C169.993 24.1499 172.384 25.1403 174.147 26.9031C175.91 28.6659 176.9 31.0569 176.9 33.5499V33.5499Z" fill="white" stroke="black" stroke-width="5" stroke-linecap="round" stroke-linejoin="round"/>
<path fill-rule="evenodd" clip-rule="evenodd" d="M59.4001 17.1C59.4001 19.593 58.4097 21.9839 56.6469 23.7468C54.8841 25.5096 52.4931 26.5 50.0001 26.5C47.5071 26.5 45.1161 25.5096 43.3533 23.7468C41.5905 21.9839 40.6001 19.593 40.6001 17.1C40.6001 14.6069 41.5905 12.216 43.3533 10.4531C45.1161 8.69031 47.5071 7.69995 50.0001 7.69995C52.4931 7.69995 54.8841 8.69031 56.6469 10.4531C58.4097 12.216 59.4001 14.6069 59.4001 17.1V17.1Z" fill="white" stroke="black" stroke-width="5" stroke-linecap="round" stroke-linejoin="round"/>
<path fill-rule="evenodd" clip-rule="evenodd" d="M139.3 19.45C139.3 21.9431 138.31 24.334 136.547 26.0969C134.784 27.8597 132.393 28.85 129.9 28.85C127.407 28.85 125.016 27.8597 123.253 26.0969C121.49 24.334 120.5 21.9431 120.5 19.45C120.5 16.957 121.49 14.5661 123.253 12.8032C125.016 11.0404 127.407 10.05 129.9 10.05C132.393 10.05 134.784 11.0404 136.547 12.8032C138.31 14.5661 139.3 16.957 139.3 19.45V19.45Z" fill="white" stroke="black" stroke-width="5" stroke-linecap="round" stroke-linejoin="round"/>
<path fill-rule="evenodd" clip-rule="evenodd" d="M26.5001 99.3501C66.4501 92.3001 125.2 92.3001 153.4 99.3501L162.8 42.9501L129.9 94.6501V28.85L104.05 92.3001L89.9501 21.8L75.8501 92.3001L50.0001 26.5V94.6501L17.1001 42.9501L26.5001 99.3501Z" fill="white" stroke="black" stroke-width="5" stroke-linejoin="round"/>
<path fill-rule="evenodd" clip-rule="evenodd" d="M26.5 99.35C26.5 108.75 33.55 108.75 38.25 118.15C42.95 125.2 42.95 122.85 40.6 134.6C33.55 139.3 33.55 146.35 33.55 146.35C26.5 153.4 35.9 158.1 35.9 158.1C66.45 162.8 113.45 162.8 144 158.1C144 158.1 151.05 153.4 144 146.35C144 146.35 146.35 139.3 139.3 134.6C136.95 122.85 136.95 125.2 141.65 118.15C146.35 108.75 153.4 108.75 153.4 99.35C113.45 92.3 66.45 92.3 26.5 99.35Z" fill="white" stroke="black" stroke-width="5" stroke-linejoin="round"/>
<path d="M38.25 118.15C54.7 113.45 125.2 113.45 141.65 118.15" stroke="black" stroke-width="5" stroke-linecap="round" stroke-linejoin="round"/>
<path d="M40.6001 134.6C68.8001 129.9 111.1 129.9 139.3 134.6" stroke="black" stroke-width="5" stroke-linecap="round" stroke-linejoin="round"/>
</g>
<defs>
<clipPath id="clip0_101_110">
<rect width="180" height="165" fill="white"/>
</clipPath>
</defs>
</svg>
