<svg width="162" height="164" viewBox="0 0 162 164" fill="none" xmlns="http://www.w3.org/2000/svg">
<g clip-path="url(#clip0_101_111)">
<path d="M81.3638 29.461V3" stroke="black" stroke-width="5" stroke-linecap="round"/>
<path d="M69.6138 12.3999H93.1138" stroke="black" stroke-width="5" stroke-linecap="round"/>
<path fill-rule="evenodd" clip-rule="evenodd" d="M81.3637 92.2999C81.3637 92.2999 102.514 57.05 95.4637 42.95C95.4637 42.95 90.7637 31.2 81.3637 31.2C71.9637 31.2 67.2637 42.95 67.2637 42.95C60.2137 57.05 81.3637 92.2999 81.3637 92.2999Z" fill="white" stroke="black" stroke-width="5"/>
<path fill-rule="evenodd" clip-rule="evenodd" d="M29.6637 148.7C55.5137 165.15 102.514 165.15 128.364 148.7V115.8C128.364 115.8 170.664 94.6499 156.564 66.4499C137.764 35.8999 93.1137 49.9999 81.3637 85.2499V101.7V85.2499C64.9137 49.9999 20.2637 35.8999 6.16371 66.4499C-7.93629 94.6499 29.6637 113.45 29.6637 113.45V148.7Z" fill="white" stroke="black" stroke-width="5" stroke-linecap="round" stroke-linejoin="round"/>
<path d="M29.6638 115.8C55.5138 101.7 102.514 101.7 128.364 115.8" stroke="black" stroke-width="5" stroke-linecap="round" stroke-linejoin="round"/>
<path d="M29.6638 132.25C55.5138 118.15 102.514 118.15 128.364 132.25" stroke="black" stroke-width="5" stroke-linecap="round" stroke-linejoin="round"/>
<path d="M29.6638 148.7C55.5138 134.6 102.514 134.6 128.364 148.7" stroke="black" stroke-width="5" stroke-linecap="round" stroke-linejoin="round"/>
</g>
<defs>
<clipPath id="clip0_101_111">
<rect width="162" height="164" fill="white"/>
</clipPath>
</defs>
</svg>
