<svg width="181" height="168" viewBox="0 0 181 168" fill="none" xmlns="http://www.w3.org/2000/svg">
<g clip-path="url(#clip0_101_102)">
<path d="M12.925 44.6501C20.0633 44.6501 25.85 38.8633 25.85 31.725C25.85 24.5868 20.0633 18.8 12.925 18.8C5.78672 18.8 0 24.5868 0 31.725C0 38.8633 5.78672 44.6501 12.925 44.6501Z" fill="black"/>
<path d="M50.5251 30.55C57.6634 30.55 63.4501 24.7632 63.4501 17.625C63.4501 10.4867 57.6634 4.69995 50.5251 4.69995C43.3868 4.69995 37.6001 10.4867 37.6001 17.625C37.6001 24.7632 43.3868 30.55 50.5251 30.55Z" fill="black"/>
<path d="M90.475 25.85C97.6133 25.85 103.4 20.0633 103.4 12.925C103.4 5.78672 97.6133 0 90.475 0C83.3368 0 77.55 5.78672 77.55 12.925C77.55 20.0633 83.3368 25.85 90.475 25.85Z" fill="black"/>
<path d="M130.425 30.55C137.563 30.55 143.35 24.7632 143.35 17.625C143.35 10.4867 137.563 4.69995 130.425 4.69995C123.287 4.69995 117.5 10.4867 117.5 17.625C117.5 24.7632 123.287 30.55 130.425 30.55Z" fill="black"/>
<path d="M168.025 44.6501C175.163 44.6501 180.95 38.8633 180.95 31.725C180.95 24.5868 175.163 18.8 168.025 18.8C160.887 18.8 155.1 24.5868 155.1 31.725C155.1 38.8633 160.887 44.6501 168.025 44.6501Z" fill="black"/>
<path fill-rule="evenodd" clip-rule="evenodd" d="M27.0249 97.5249C66.9749 90.4749 125.725 90.4749 153.925 97.5249L165.675 38.775L130.425 92.8249L129.015 26.5549L104.575 90.4749L90.4749 22.325L76.3749 90.4749L51.9349 26.5549L50.5249 92.8249L15.2749 38.775L27.0249 97.5249Z" fill="black" stroke="black" stroke-width="5" stroke-linejoin="round"/>
<path fill-rule="evenodd" clip-rule="evenodd" d="M27.0249 97.525C27.0249 106.925 34.0749 106.925 38.7749 116.325C43.4749 123.375 43.4749 121.025 41.1249 132.775C34.0749 137.475 34.0749 144.525 34.0749 144.525C27.0249 151.575 36.4249 156.275 36.4249 156.275C66.9749 160.975 113.975 160.975 144.525 156.275C144.525 156.275 151.575 151.575 144.525 144.525C144.525 144.525 146.875 137.475 139.825 132.775C137.475 121.025 137.475 123.375 142.175 116.325C146.875 106.925 153.925 106.925 153.925 97.525C113.975 90.475 66.9749 90.475 27.0249 97.525Z" fill="black" stroke="black" stroke-width="5" stroke-linejoin="round"/>
<path d="M36.425 156.275C71.4295 168.453 109.521 168.453 144.525 156.275" stroke="black" stroke-width="5" stroke-linejoin="round"/>
<path d="M36.425 111.625C71.4295 99.4474 109.521 99.4474 144.525 111.625" stroke="white" stroke-width="5" stroke-linecap="round" stroke-linejoin="round"/>
<path d="M43.4751 123.375H137.475" stroke="white" stroke-width="5" stroke-linecap="round" stroke-linejoin="round"/>
<path d="M38.7749 137.475C72.3456 148.589 108.604 148.589 142.175 137.475" stroke="white" stroke-width="5" stroke-linecap="round" stroke-linejoin="round"/>
<path d="M34.075 151.575C70.4998 164.869 110.45 164.869 146.875 151.575" stroke="white" stroke-width="5" stroke-linecap="round" stroke-linejoin="round"/>
</g>
<defs>
<clipPath id="clip0_101_102">
<rect width="181" height="168" fill="white"/>
</clipPath>
</defs>
</svg>
