<svg width="750" height="750" viewBox="0 0 750 750" fill="none" xmlns="http://www.w3.org/2000/svg">
<g clip-path="url(#clip0_2_2)">
<path d="M29.2094 185.368C26.3323 169.052 37.2274 153.492 53.5442 150.615L85.5505 144.971L96.4035 206.522L34.853 217.375L29.2094 185.368Z" fill="#CDCDCD"/>
<rect width="62.5" height="62.5" transform="translate(67.412 402.026) rotate(-10)" fill="#CDCDCD"/>
<rect x="85.5505" y="144.971" width="62.5" height="62.5" transform="rotate(-10 85.5505 144.971)" fill="#27447B"/>
<rect x="128.963" y="391.173" width="62.5" height="62.5" transform="rotate(-10 128.963 391.173)" fill="#27447B"/>
<rect width="62.5" height="62.5" transform="translate(147.101 134.118) rotate(-10)" fill="#CDCDCD"/>
<rect width="62.5" height="62.5" transform="translate(190.513 380.32) rotate(-10)" fill="#CDCDCD"/>
<rect x="208.651" y="123.265" width="62.5" height="62.5" transform="rotate(-10 208.651 123.265)" fill="#27447B"/>
<rect x="252.064" y="369.467" width="62.5" height="62.5" transform="rotate(-10 252.064 369.467)" fill="#27447B"/>
<rect width="62.5" height="62.5" transform="translate(270.202 112.412) rotate(-10)" fill="#CDCDCD"/>
<rect width="62.5" height="62.5" transform="translate(313.614 358.614) rotate(-10)" fill="#CDCDCD"/>
<rect x="331.752" y="101.559" width="62.5" height="62.5" transform="rotate(-10 331.752 101.559)" fill="#27447B"/>
<rect x="375.164" y="347.761" width="62.5" height="62.5" transform="rotate(-10 375.164 347.761)" fill="#27447B"/>
<rect width="62.5" height="62.5" transform="translate(393.303 90.706) rotate(-10)" fill="#CDCDCD"/>
<rect width="62.5" height="62.5" transform="translate(436.715 336.908) rotate(-10)" fill="#CDCDCD"/>
<path d="M454.853 79.853L486.86 74.2094C503.176 71.3323 518.736 82.2274 521.613 98.5442L527.257 130.55L465.706 141.403L454.853 79.853Z" fill="#27447B"/>
<rect x="498.265" y="326.055" width="62.5" height="62.5" transform="rotate(-10 498.265 326.055)" fill="#27447B"/>
<rect width="62.5" height="62.5" transform="translate(538.11 192.101) rotate(170)" fill="#CDCDCD"/>
<rect width="62.5" height="62.5" transform="translate(581.522 438.303) rotate(170)" fill="#CDCDCD"/>
<rect x="476.559" y="202.954" width="62.5" height="62.5" transform="rotate(170 476.559 202.954)" fill="#27447B"/>
<rect x="519.971" y="449.156" width="62.5" height="62.5" transform="rotate(170 519.971 449.156)" fill="#27447B"/>
<rect width="62.5" height="62.5" transform="translate(415.009 213.807) rotate(170)" fill="#CDCDCD"/>
<rect width="62.5" height="62.5" transform="translate(458.421 460.009) rotate(170)" fill="#CDCDCD"/>
<rect x="353.458" y="224.66" width="62.5" height="62.5" transform="rotate(170 353.458 224.66)" fill="#27447B"/>
<rect x="396.87" y="470.862" width="62.5" height="62.5" transform="rotate(170 396.87 470.862)" fill="#27447B"/>
<rect width="62.5" height="62.5" transform="translate(291.908 235.513) rotate(170)" fill="#CDCDCD"/>
<rect width="62.5" height="62.5" transform="translate(335.32 481.715) rotate(170)" fill="#CDCDCD"/>
<rect x="230.357" y="246.366" width="62.5" height="62.5" transform="rotate(170 230.357 246.366)" fill="#27447B"/>
<rect x="273.77" y="492.568" width="62.5" height="62.5" transform="rotate(170 273.77 492.568)" fill="#27447B"/>
<rect width="62.5" height="62.5" transform="translate(168.807 257.219) rotate(170)" fill="#CDCDCD"/>
<rect width="62.5" height="62.5" transform="translate(212.219 503.421) rotate(170)" fill="#CDCDCD"/>
<rect x="107.257" y="268.072" width="62.5" height="62.5" transform="rotate(170 107.257 268.072)" fill="#27447B"/>
<rect x="150.669" y="514.274" width="62.5" height="62.5" transform="rotate(170 150.669 514.274)" fill="#27447B"/>
<rect width="62.5" height="62.5" transform="translate(45.706 278.925) rotate(-10)" fill="#CDCDCD"/>
<rect width="62.5" height="62.5" transform="translate(89.1181 525.127) rotate(-10)" fill="#CDCDCD"/>
<rect x="107.257" y="268.072" width="62.5" height="62.5" transform="rotate(-10 107.257 268.072)" fill="#27447B"/>
<rect x="150.669" y="514.274" width="62.5" height="62.5" transform="rotate(-10 150.669 514.274)" fill="#27447B"/>
<rect width="62.5" height="62.5" transform="translate(168.807 257.219) rotate(-10)" fill="#CDCDCD"/>
<rect width="62.5" height="62.5" transform="translate(212.219 503.421) rotate(-10)" fill="#CDCDCD"/>
<rect x="230.357" y="246.366" width="62.5" height="62.5" transform="rotate(-10 230.357 246.366)" fill="#27447B"/>
<rect x="273.77" y="492.568" width="62.5" height="62.5" transform="rotate(-10 273.77 492.568)" fill="#27447B"/>
<rect width="62.5" height="62.5" transform="translate(291.908 235.513) rotate(-10)" fill="#CDCDCD"/>
<rect width="62.5" height="62.5" transform="translate(335.32 481.715) rotate(-10)" fill="#CDCDCD"/>
<rect x="353.458" y="224.66" width="62.5" height="62.5" transform="rotate(-10 353.458 224.66)" fill="#27447B"/>
<rect x="396.87" y="470.862" width="62.5" height="62.5" transform="rotate(-10 396.87 470.862)" fill="#27447B"/>
<rect width="62.5" height="62.5" transform="translate(415.009 213.807) rotate(-10)" fill="#CDCDCD"/>
<rect width="62.5" height="62.5" transform="translate(458.421 460.009) rotate(-10)" fill="#CDCDCD"/>
<rect x="476.559" y="202.954" width="62.5" height="62.5" transform="rotate(-10 476.559 202.954)" fill="#27447B"/>
<rect x="519.971" y="449.156" width="62.5" height="62.5" transform="rotate(-10 519.971 449.156)" fill="#27447B"/>
<rect width="62.5" height="62.5" transform="translate(559.816 315.202) rotate(170)" fill="#CDCDCD"/>
<path d="M598.019 531.86C600.896 548.176 590.001 563.736 573.684 566.613L541.677 572.257L530.824 510.706L592.375 499.853L598.019 531.86Z" fill="#CDCDCD"/>
<rect x="498.265" y="326.055" width="62.5" height="62.5" transform="rotate(170 498.265 326.055)" fill="#27447B"/>
<rect x="541.677" y="572.257" width="62.5" height="62.5" transform="rotate(170 541.677 572.257)" fill="#27447B"/>
<rect width="62.5" height="62.5" transform="translate(436.715 336.908) rotate(170)" fill="#CDCDCD"/>
<rect width="62.5" height="62.5" transform="translate(480.127 583.11) rotate(170)" fill="#CDCDCD"/>
<rect x="375.164" y="347.761" width="62.5" height="62.5" transform="rotate(170 375.164 347.761)" fill="#27447B"/>
<rect x="418.577" y="593.963" width="62.5" height="62.5" transform="rotate(170 418.577 593.963)" fill="#27447B"/>
<rect width="62.5" height="62.5" transform="translate(313.614 358.614) rotate(170)" fill="#CDCDCD"/>
<rect width="62.5" height="62.5" transform="translate(357.026 604.816) rotate(170)" fill="#CDCDCD"/>
<rect x="252.064" y="369.467" width="62.5" height="62.5" transform="rotate(170 252.064 369.467)" fill="#27447B"/>
<rect x="295.476" y="615.669" width="62.5" height="62.5" transform="rotate(170 295.476 615.669)" fill="#27447B"/>
<rect width="62.5" height="62.5" transform="translate(190.513 380.32) rotate(170)" fill="#CDCDCD"/>
<rect width="62.5" height="62.5" transform="translate(233.925 626.522) rotate(170)" fill="#CDCDCD"/>
<rect x="128.963" y="391.173" width="62.5" height="62.5" transform="rotate(170 128.963 391.173)" fill="#27447B"/>
<path d="M172.375 637.375L140.368 643.019C124.051 645.896 108.492 635.001 105.615 618.684L100.318 588.647C100.127 587.559 100.853 586.522 101.941 586.33L161.522 575.824L172.375 637.375Z" fill="#27447B"/>
</g>
<rect x="25.7377" y="157.041" width="497" height="497" rx="23.5" transform="rotate(-10 25.7377 157.041)" stroke="black" stroke-width="3"/>
<path d="M498.107 63.2823L558.099 69.4343C608.278 81.0519 648.004 101.994 677.277 132.26C713.253 168.534 728.966 212.671 724.416 264.673C720.965 304.122 699.817 339.313 660.974 370.245C648.026 380.556 621.898 396.941 582.591 419.401C556.023 433.94 523.877 453.714 486.154 478.721L435.341 512.22L479.195 516.96C561.082 524.125 606.041 526.552 614.073 524.244C619.012 522.869 625.112 511.658 632.374 490.611L643.626 444.616C643.678 444.018 654.463 444.661 675.981 446.543L708.258 449.367L707.944 452.954C707.241 454.097 699.348 489.243 684.264 558.391C670.48 626.449 662.86 661.919 661.403 664.803L661.089 668.39L468.325 651.525L276.458 634.739L278.811 607.842C280.432 589.312 281.62 579.177 282.375 577.437C283.78 575.15 315.357 548.099 377.108 496.284C456.566 427.949 502.302 387.08 514.316 373.676C516.266 372.04 518.594 369.533 521.298 366.156C539.865 346.7 553.272 327.696 561.52 309.145C570.366 290.645 575.652 271.533 577.378 251.809C578.633 237.463 577.796 222.935 574.867 208.224C562.441 164.374 532.88 137.395 486.184 127.287C482.052 126.323 478.193 125.684 474.607 125.37C458.468 123.958 449.424 124.071 447.474 125.707L452.304 132.454C465.29 149.249 470.543 168.38 468.062 189.845C463.027 226.747 442.432 248.736 406.278 255.811C401.392 256.589 394.764 256.611 386.396 255.879C377.431 255.095 370.609 253.895 365.932 252.282C338.571 241.456 322.455 222.579 317.584 195.652C316.754 191.364 316.81 183.84 317.751 173.081C318.64 162.92 320.269 154.63 322.637 148.212C328.988 130.699 338.663 116.488 351.664 105.58C364.716 94.0736 380.899 84.6482 400.213 77.3036C418.876 70.5044 439.423 66.279 461.852 64.6275C466.738 63.8505 478.824 63.4021 498.107 63.2823Z" fill="url(#paint0_linear_2_2)"/>
<path d="M498.107 63.2823L498.617 58.3084L498.348 58.2807L498.076 58.2824L498.107 63.2823ZM558.099 69.4343L559.227 64.5632L558.922 64.4924L558.609 64.4604L558.099 69.4343ZM677.277 132.26L673.683 135.737L673.705 135.759L673.727 135.781L677.277 132.26ZM660.974 370.245L664.088 374.156L664.088 374.156L660.974 370.245ZM582.591 419.401L584.991 423.787L585.032 423.765L585.072 423.742L582.591 419.401ZM486.154 478.721L488.906 482.896L488.917 482.889L486.154 478.721ZM435.341 512.22L432.589 508.046L420.983 515.697L434.804 517.191L435.341 512.22ZM479.195 516.96L478.657 521.931L478.708 521.937L478.759 521.941L479.195 516.96ZM614.073 524.244L612.732 519.427L612.712 519.432L612.692 519.438L614.073 524.244ZM632.374 490.611L637.101 492.241L637.176 492.023L637.231 491.799L632.374 490.611ZM643.626 444.616L648.482 445.804L648.573 445.433L648.607 445.052L643.626 444.616ZM708.258 449.367L713.238 449.803L713.674 444.822L708.693 444.386L708.258 449.367ZM707.944 452.954L712.204 455.571L712.822 454.565L712.925 453.389L707.944 452.954ZM684.264 558.391L679.379 557.325L679.371 557.362L679.364 557.398L684.264 558.391ZM661.403 664.803L656.94 662.549L656.506 663.408L656.422 664.368L661.403 664.803ZM661.089 668.39L660.653 673.371L665.634 673.806L666.07 668.826L661.089 668.39ZM276.458 634.739L271.477 634.303L271.041 639.284L276.022 639.72L276.458 634.739ZM282.375 577.437L278.115 574.819L277.929 575.122L277.787 575.448L282.375 577.437ZM377.108 496.284L380.322 500.114L380.345 500.095L380.368 500.075L377.108 496.284ZM514.316 373.676L511.102 369.846L510.83 370.074L510.593 370.339L514.316 373.676ZM521.298 366.156L517.681 362.704L517.531 362.861L517.396 363.031L521.298 366.156ZM561.52 309.145L557.01 306.988L556.98 307.05L556.952 307.113L561.52 309.145ZM574.867 208.224L579.771 207.248L579.732 207.052L579.678 206.861L574.867 208.224ZM486.184 127.287L485.048 132.156L485.087 132.165L485.126 132.173L486.184 127.287ZM447.474 125.707L444.26 121.877L440.713 124.853L443.409 128.618L447.474 125.707ZM452.304 132.454L448.239 135.364L448.292 135.439L448.349 135.512L452.304 132.454ZM468.062 189.845L473.016 190.521L473.023 190.47L473.029 190.419L468.062 189.845ZM406.278 255.811L407.063 260.749L407.151 260.735L407.238 260.718L406.278 255.811ZM365.932 252.282L364.092 256.931L364.196 256.972L364.301 257.008L365.932 252.282ZM317.584 195.652L322.504 194.762L322.498 194.733L322.493 194.703L317.584 195.652ZM322.637 148.212L327.328 149.943L327.333 149.93L327.338 149.917L322.637 148.212ZM351.664 105.58L354.878 109.41L354.924 109.371L354.97 109.331L351.664 105.58ZM400.213 77.3036L398.501 72.6056L398.468 72.6176L398.436 72.6301L400.213 77.3036ZM461.852 64.6275L462.219 69.614L462.429 69.5986L462.637 69.5655L461.852 64.6275ZM497.597 68.2562L557.589 74.4083L558.609 64.4604L498.617 58.3084L497.597 68.2562ZM556.972 74.3055C606.422 85.7544 645.216 106.304 673.683 135.737L680.871 128.784C650.791 97.684 610.134 76.3494 559.227 64.5632L556.972 74.3055ZM673.727 135.781C708.641 170.985 723.86 213.664 719.435 264.237L729.397 265.109C734.072 211.679 717.864 166.083 680.827 128.74L673.727 135.781ZM719.435 264.237C716.132 301.991 695.92 336.025 657.859 366.334L664.088 374.156C703.714 342.601 725.798 306.253 729.397 265.109L719.435 264.237ZM657.859 366.334C645.254 376.371 619.451 392.581 580.111 415.059L585.072 423.742C624.346 401.301 650.797 384.741 664.088 374.156L657.859 366.334ZM580.191 415.015C553.454 429.646 521.181 449.503 483.391 474.554L488.917 482.889C526.573 457.925 558.591 438.235 584.991 423.787L580.191 415.015ZM483.402 474.547L432.589 508.046L438.093 516.395L488.906 482.896L483.402 474.547ZM434.804 517.191L478.657 521.931L479.732 511.989L435.878 507.249L434.804 517.191ZM478.759 521.941C519.721 525.525 551.497 527.929 574.06 529.147C585.336 529.756 594.365 530.072 601.114 530.087C604.486 530.095 607.343 530.027 609.655 529.877C611.876 529.732 613.906 529.494 615.455 529.049L612.692 519.438C612.232 519.57 611.101 519.761 609.005 519.898C607.001 520.028 604.389 520.094 601.137 520.087C594.638 520.072 585.804 519.767 574.599 519.162C552.203 517.952 520.556 515.56 479.63 511.979L478.759 521.941ZM615.414 529.06C618.007 528.339 620.1 526.551 621.754 524.665C623.469 522.709 625.124 520.171 626.744 517.194C629.989 511.231 633.435 502.865 637.101 492.241L627.648 488.98C624.051 499.404 620.816 507.167 617.96 512.414C616.53 515.043 615.28 516.88 614.236 518.071C613.13 519.332 612.609 519.461 612.732 519.427L615.414 529.06ZM637.231 491.799L648.482 445.804L638.769 443.428L627.517 489.422L637.231 491.799ZM648.607 445.052C648.43 447.071 647.159 448.207 646.582 448.623C645.99 449.049 645.455 449.227 645.275 449.284C645.039 449.359 644.862 449.392 644.794 449.404C644.752 449.412 644.72 449.416 644.702 449.419C644.683 449.422 644.672 449.423 644.671 449.423C644.671 449.423 644.693 449.42 644.744 449.417C644.794 449.414 644.862 449.411 644.95 449.408C645.127 449.402 645.361 449.399 645.657 449.4C646.868 449.405 648.781 449.481 651.456 449.641C656.777 449.958 664.796 450.584 675.545 451.524L676.417 441.562C665.647 440.62 657.515 439.984 652.051 439.659C649.334 439.497 647.196 439.407 645.698 439.4C644.977 439.397 644.247 439.412 643.625 439.478C643.357 439.506 642.825 439.57 642.248 439.753C641.98 439.838 641.379 440.046 640.742 440.505C640.12 440.953 638.825 442.124 638.645 444.18L648.607 445.052ZM675.545 451.524L707.822 454.348L708.693 444.386L676.417 441.562L675.545 451.524ZM703.277 448.932L702.963 452.518L712.925 453.389L713.238 449.803L703.277 448.932ZM703.683 450.336C703.348 450.883 703.167 451.425 703.141 451.499C703.066 451.713 702.996 451.937 702.935 452.143C702.81 452.563 702.665 453.098 702.503 453.721C702.177 454.978 701.743 456.756 701.203 459.034C700.122 463.599 698.593 470.283 696.619 479.075C692.669 496.663 686.922 522.749 679.379 557.325L689.149 559.457C696.691 524.885 702.432 498.823 706.376 481.266C708.348 472.484 709.867 465.846 710.934 461.339C711.469 459.081 711.884 457.385 712.183 456.231C712.334 455.649 712.445 455.244 712.521 454.989C712.56 454.858 712.576 454.812 712.573 454.822C712.571 454.827 712.551 454.883 712.515 454.969C712.494 455.018 712.391 455.266 712.204 455.571L703.683 450.336ZM679.364 557.398C672.473 591.422 667.126 617.281 663.322 634.987C661.42 643.844 659.908 650.635 658.785 655.379C658.223 657.755 657.767 659.582 657.413 660.883C656.999 662.405 656.846 662.734 656.94 662.549L665.866 667.058C666.323 666.152 666.727 664.741 667.063 663.506C667.459 662.049 667.944 660.1 668.517 657.682C669.663 652.837 671.192 645.966 673.099 637.088C676.916 619.323 682.272 593.418 689.165 559.384L679.364 557.398ZM656.422 664.368L656.108 667.954L666.07 668.826L666.384 665.239L656.422 664.368ZM661.525 663.409L468.761 646.544L467.889 656.506L660.653 673.371L661.525 663.409ZM468.761 646.544L276.894 629.758L276.022 639.72L467.889 656.506L468.761 646.544ZM281.439 635.175L283.792 608.277L273.83 607.406L271.477 634.303L281.439 635.175ZM283.792 608.277C284.601 599.029 285.299 591.92 285.884 586.925C286.177 584.423 286.437 582.499 286.662 581.123C286.927 579.507 287.065 579.188 286.962 579.425L277.787 575.448C277.307 576.555 277.015 578.156 276.793 579.509C276.533 581.102 276.253 583.196 275.952 585.761C275.35 590.902 274.642 598.125 273.83 607.406L283.792 608.277ZM286.635 580.054C286.399 580.438 286.229 580.565 286.596 580.184C286.842 579.927 287.221 579.554 287.755 579.048C288.817 578.042 290.361 576.636 292.409 574.814C296.496 571.179 302.477 565.988 310.365 559.231C326.134 545.723 349.45 526.019 380.322 500.114L373.894 492.454C343.015 518.364 319.668 538.094 303.859 551.637C295.957 558.405 289.921 563.644 285.763 567.343C283.688 569.188 282.052 570.675 280.877 571.789C280.293 572.342 279.788 572.835 279.388 573.252C279.108 573.543 278.527 574.149 278.115 574.819L286.635 580.054ZM380.368 500.075C459.676 431.87 505.749 390.726 518.04 377.013L510.593 370.339C498.856 383.434 453.457 424.029 373.848 492.493L380.368 500.075ZM517.53 377.506C519.847 375.562 522.412 372.764 525.201 369.282L517.396 363.031C514.776 366.302 512.686 368.517 511.102 369.846L517.53 377.506ZM524.916 369.608C543.757 349.864 557.546 330.392 566.089 311.176L556.952 307.113C548.998 325.001 535.972 343.537 517.681 362.704L524.916 369.608ZM566.031 311.302C575.126 292.281 580.579 272.588 582.359 252.244L572.397 251.373C570.725 270.479 565.606 289.01 557.01 306.988L566.031 311.302ZM582.359 252.244C583.657 237.408 582.788 222.404 579.771 207.248L569.963 209.2C572.804 223.466 573.609 237.519 572.397 251.373L582.359 252.244ZM579.678 206.861C573.247 184.167 562.307 165.61 546.748 151.409C531.199 137.219 511.285 127.604 487.241 122.4L485.126 132.173C507.779 137.077 525.994 146.007 540.006 158.795C554.008 171.574 564.061 188.43 570.056 209.587L579.678 206.861ZM487.319 122.417C482.997 121.409 478.902 120.727 475.042 120.389L474.171 130.351C477.484 130.641 481.107 131.237 485.048 132.156L487.319 122.417ZM475.042 120.389C466.915 119.678 460.427 119.337 455.658 119.396C453.284 119.425 451.196 119.555 449.481 119.827C448.043 120.056 445.885 120.514 444.26 121.877L450.688 129.537C450.038 130.082 449.742 129.912 451.052 129.703C452.086 129.539 453.633 129.422 455.782 129.395C460.057 129.342 466.16 129.65 474.171 130.351L475.042 120.389ZM443.409 128.618L448.239 135.364L456.37 129.543L451.539 122.796L443.409 128.618ZM448.349 135.512C460.52 151.255 465.429 169.076 463.095 189.271L473.029 190.419C475.656 167.683 470.059 147.244 456.26 129.395L448.349 135.512ZM463.108 189.169C460.697 206.839 454.627 220.52 445.19 230.595C435.758 240.666 422.598 247.523 405.318 250.905L407.238 260.718C426.112 257.025 441.327 249.349 452.489 237.431C463.647 225.517 470.392 209.754 473.016 190.521L463.108 189.169ZM405.493 250.874C401.194 251.557 395.033 251.615 386.832 250.898L385.961 260.86C394.495 261.607 401.589 261.62 407.063 260.749L405.493 250.874ZM386.832 250.898C378 250.125 371.659 248.969 367.563 247.555L364.301 257.008C369.559 258.822 376.861 260.064 385.961 260.86L386.832 250.898ZM367.772 247.632C341.873 237.385 327.041 219.839 322.504 194.762L312.663 196.542C317.87 225.32 335.27 245.527 364.092 256.931L367.772 247.632ZM322.493 194.703C321.811 191.179 321.789 184.295 322.732 173.517L312.77 172.645C311.831 183.385 311.697 191.548 312.675 196.602L322.493 194.703ZM322.732 173.517C323.6 163.604 325.169 155.794 327.328 149.943L317.947 146.481C315.369 153.466 313.681 162.236 312.77 172.645L322.732 173.517ZM327.338 149.917C333.419 133.148 342.616 119.699 354.878 109.41L348.45 101.75C334.711 113.278 324.557 128.251 317.937 146.508L327.338 149.917ZM354.97 109.331C367.497 98.288 383.135 89.1475 401.99 81.9771L398.436 72.6301C378.664 80.149 361.936 89.8593 348.357 101.829L354.97 109.331ZM401.924 82.0016C420.102 75.3792 440.19 71.2361 462.219 69.614L461.485 59.641C438.656 61.3219 417.65 65.6296 398.501 72.6056L401.924 82.0016ZM462.637 69.5655C467.066 68.8613 478.719 68.4028 498.138 68.2822L498.076 58.2824C478.928 58.4013 466.411 58.8397 461.067 59.6896L462.637 69.5655Z" fill="black"/>
<defs>
<linearGradient id="paint0_linear_2_2" x1="125.092" y1="-7.89898" x2="757" y2="176" gradientUnits="userSpaceOnUse">
<stop stop-color="#FF9797"/>
<stop offset="1" stop-color="#FF0000"/>
</linearGradient>
<clipPath id="clip0_2_2">
<rect width="500" height="500" fill="white" transform="translate(24 155.824) rotate(-10)"/>
</clipPath>
</defs>
</svg>
