<svg width="133" height="147" viewBox="0 0 133 147" fill="none" xmlns="http://www.w3.org/2000/svg">
<g clip-path="url(#clip0_101_107)">
<path fill-rule="evenodd" clip-rule="evenodd" d="M3 144H129.9V129.9H3V144Z" fill="white" stroke="black" stroke-width="5" stroke-linejoin="round"/>
<path fill-rule="evenodd" clip-rule="evenodd" d="M17.1001 129.9V111.1H115.8V129.9H17.1001Z" fill="white" stroke="black" stroke-width="5" stroke-linejoin="round"/>
<path fill-rule="evenodd" clip-rule="evenodd" d="M12.3999 26.5V3H31.1999V12.4H54.6999V3H78.1999V12.4H101.7V3H120.5V26.5" fill="white"/>
<path d="M12.3999 26.5V3H31.1999V12.4H54.6999V3H78.1999V12.4H101.7V3H120.5V26.5" stroke="black" stroke-width="5" stroke-linejoin="round"/>
<path fill-rule="evenodd" clip-rule="evenodd" d="M120.5 26.5L106.4 40.6H26.4999L12.3999 26.5" fill="white"/>
<path d="M120.5 26.5L106.4 40.6H26.4999L12.3999 26.5" stroke="black" stroke-width="5" stroke-linecap="round" stroke-linejoin="round"/>
<path fill-rule="evenodd" clip-rule="evenodd" d="M106.4 40.6001V99.3501H26.5V40.6001" fill="white"/>
<path d="M106.4 40.6001V99.3501H26.5V40.6001" stroke="black" stroke-width="5"/>
<path fill-rule="evenodd" clip-rule="evenodd" d="M106.4 99.3501L113.45 111.1H19.4502L26.5002 99.3501" fill="white"/>
<path d="M106.4 99.3501L113.45 111.1H19.4502L26.5002 99.3501" stroke="black" stroke-width="5" stroke-linecap="round" stroke-linejoin="round"/>
<path d="M12.3999 26.5H120.5" stroke="black" stroke-width="5" stroke-linecap="round"/>
</g>
<defs>
<clipPath id="clip0_101_107">
<rect width="133" height="147" fill="white"/>
</clipPath>
</defs>
</svg>
